<mxfile host="app.diagrams.net" modified="2024-03-29T14:51:29.547Z" agent="Mozilla/5.0 (Macintosh; Intel Mac OS X 10_15_7) AppleWebKit/537.36 (KHTML, like Gecko) Chrome/123.0.0.0 Safari/537.36" version="24.2.1" etag="Pdf4txzS63kdS-VglQ4y" type="github">
  <diagram name="第 1 页" id="86h6sbVUMMZ1NQU3l6S5">
    <mxGraphModel>
      <root>
        <mxCell id="0" />
        <mxCell id="1" parent="0" />
      </root>
    </mxGraphModel>
  </diagram>
</mxfile>
